<svg id="Capa_1" data-name="Capa 1" xmlns="http://www.w3.org/2000/svg" viewBox="0 0 1080 1080"><defs><style>.cls-1,.cls-3{fill:#f5b2d1;}.cls-2{fill:#243771;}.cls-3{font-size:145.52px;font-family:FredokaOne-Regular, Fredoka One;}.cls-4{fill:#dda85a;}.cls-5{fill:#af632e;}.cls-6{fill:#861a11;}.cls-7{opacity:0.56;}.cls-8{fill:#ebc99a;}</style></defs><circle class="cls-1" cx="285.49" cy="726.05" r="64.09" transform="translate(-429.78 414.52) rotate(-45)"/><circle class="cls-1" cx="729.37" cy="661.14" r="34.57"/><circle class="cls-2" cx="277.48" cy="438.13" r="34.57"/><path class="cls-1" d="M858.61,610.72c-38.82,3.76-41.87,6.82-45.63,45.63-3.77-38.81-6.82-41.87-45.64-45.63,38.82-3.77,41.87-6.82,45.64-45.63C816.74,603.9,819.79,607,858.61,610.72Z"/><text class="cls-3" transform="translate(218.85 579.25) rotate(-79.19)">E</text><text class="cls-3" transform="matrix(0.56, -0.83, 0.83, 0.56, 241.11, 468.11)">m</text><text class="cls-3" transform="translate(327.25 353.41) rotate(-34)">p</text><text class="cls-3" transform="translate(416.84 297.03) rotate(-14.79)">a</text><text class="cls-3" transform="translate(521.9 272.97) rotate(4.61)">n</text><text class="cls-3" transform="translate(630.39 285.38) rotate(24.09)">a</text><text class="cls-3" transform="translate(728.33 329.71) rotate(46.5)">m</text><text class="cls-3" transform="translate(820.15 441.28) rotate(64.72)">i</text><text class="cls-3" transform="translate(846.02 495.44) rotate(79.99)">a</text><path d="M655.67,637.31c-23.75,30.57-47.2,61.37-71.43,91.54-7.24,9-13.07,17.54-16.28,29.23-9.61,35-51.19,55.3-84,42.69-10.5-4-18.3-11.29-24.75-20.33-1.18-1.66-3.55-3.35-5.48-3.48-30.89-2-51.53-17.41-61.43-46.62a14.92,14.92,0,0,0-8-9.13c-20.15-10.52-34.56-26.2-40.43-48.43-2.11-8-1.74-16.67-2.73-25-.24-2-.82-4.56-2.21-5.72-20.71-17.32-25.82-40-21.63-65.25,1.51-9.15,6.1-17.77,9-26.72.84-2.56,1.56-5.61,1-8.12-5.21-22.1-4.81-43.67,7.83-63.23,5.22-8.08,12.58-14.87,19.48-21.74,2.56-2.54,4.34-4.64,4.86-8.39,4.45-32.34,20.77-55.76,52.26-66.75,6.65-2.32,10.89-5.59,14.54-11.56,16-26.17,49-39.57,80.34-33a12.86,12.86,0,0,0,11.32-2.35c27.24-19.7,65.88-18.58,92.38,2.57a9.22,9.22,0,0,0,8.89,1.92,78.37,78.37,0,0,1,94.38,59c.59,2.59,1.2,4.25,4.33,4.62,41.15,4.95,59.6,45.88,43.95,84.17-6.16,15.07-16.39,26.46-31.16,33.66a9.21,9.21,0,0,0-4,3.73c-18.39,35.58-41.63,68.08-64.18,101-2.53,3.69-5.17,7.3-7.76,11Z"/><path d="M709.59,451.45l-.76.87c-.91-.73-1.89-1.38-2.72-2.19-22.24-21.71-47.06-39.77-75.77-51.95C590.81,381.4,550.1,378,509.31,392,449,412.61,408.49,454.45,386.82,514c-17.65,48.54-15.15,96.41,9.4,142.37,20.17,37.78,51.94,63.62,88.54,84.27,4.89,2.76,9.89,5.31,14.84,8l-.54,1.13-37.49-10c1.89,7.77,3,14.4,5.12,20.67,7.31,21.52,27.48,32.45,49.1,27,22-5.57,38.69-23.89,39.2-43.85.14-5.64,2.25-8.93,6-13,12.26-13.23,24.29-26.78,35.29-41,35.43-46,69-93.29,99.68-142.55,7.06-11.33,12.49-23.67,18.77-35.49a5.21,5.21,0,0,1,2.86-2.53c19.94-4.57,34.06-26.62,33.78-49.05-.48-37.43-34.29-48.26-62.2-38.7Z"/><path d="M536.88,371.36a38.13,38.13,0,0,0-2.36-3c-16.53-16.75-36.69-20.77-58.88-15.92-14.75,3.22-26.8,11.25-35.87,23.51-2,2.76-2.56,4.64,1.53,6,7.65,2.56,15.16,5.56,22.79,8.19a8.81,8.81,0,0,0,5,.22C491.41,384.18,513.71,377.88,536.88,371.36Z"/><path d="M373.93,451.31c9.69-1.28,18.07-2.12,26.33-3.64a17.72,17.72,0,0,0,8.43-4.23c11.86-11,23.45-22.23,35.12-33.41,4.39-4.2,8.76-8.44,13.94-13.45-21.72-7.82-40.62-4.2-57.86,8C384.28,415.62,375.17,430.75,373.93,451.31Z"/><path d="M400.52,457.38c-15.44-3.29-38.25,8-49.81,24.68-11.4,16.46-15.61,34.33-9.24,54.93,8.13-4.36,15.64-8.07,22.79-12.38a19,19,0,0,0,6.87-7.16c7.59-14.83,14.78-29.86,22.08-44.83C395.66,467.6,398.05,462.55,400.52,457.38Z"/><path d="M525.61,348.09c6.31,5.9,12.07,11.8,18.39,17a21.38,21.38,0,0,0,10,4.36c15.65,2.24,31.37,4,47.07,5.87,6.34.75,12.72,1.24,19.38,1.88C609.2,339.09,557.15,322.66,525.61,348.09Z"/><path d="M699.55,407c-3.06-21.66-14.4-37.42-33.12-47.7-15-8.27-31-9.62-48.23-4.26,5.06,9.2,9.62,17.64,14.38,26a8.07,8.07,0,0,0,3.61,2.72c16.33,7.67,32.76,15.14,49,23C690,408.94,694.41,408.35,699.55,407Z"/><path d="M368.59,532c-20.3,8.51-32,23.89-36.47,44.82-3.95,18.71-.48,36,12.49,51.54,6.06-7.09,11.78-13.45,17.06-20.16a14.3,14.3,0,0,0,3.09-7.79c.32-9.42-.46-18.89.1-28.29C365.64,559,367.26,545.85,368.59,532Z"/><path d="M367.73,616c-1.28,1.8-2.74,3.61-3.93,5.59-6.26,10.37-8.45,21.81-7.56,33.67,1.66,22.34,11.44,40,31.27,51.43,3.79,2.19,5.48,1.41,6.35-2.82,1.25-6,3.09-12,4.14-18.06a11.81,11.81,0,0,0-1.33-7.09c-4.2-7.67-9.53-14.8-13.09-22.74C377.84,643.19,373.18,629.92,367.73,616Z"/><path d="M454.4,761.73c-1.17-7.73-2.84-14.8-3.12-21.93-.23-5.88-3-9.28-7.19-12.74q-13.45-11.2-26.29-23.12c-4.48-4.15-8.34-9-12.6-13.61-6.33,12.19-1.12,38.11,10.38,52.77C425.38,755.6,438,762.28,454.4,761.73Z"/><path class="cls-4" d="M709.59,451.45l-20.44-30.28c27.91-9.56,61.72,1.27,62.2,38.7.28,22.43-13.84,44.48-33.78,49.05a5.21,5.21,0,0,0-2.86,2.53c-6.28,11.82-11.71,24.16-18.77,35.49-30.7,49.26-64.25,96.58-99.68,142.55-11,14.27-23,27.82-35.29,41-3.73,4-5.84,7.32-6,13-.51,20-17.24,38.28-39.2,43.85-21.62,5.49-41.79-5.44-49.1-27-2.14-6.27-3.23-12.9-5.12-20.67l37.49,10,.54-1.13c-5-2.66-10-5.21-14.84-8-36.6-20.65-68.37-46.49-88.54-84.27-24.55-46-27.05-93.83-9.4-142.37,21.67-59.56,62.13-101.4,122.49-122,40.79-14,81.5-10.57,121,6.21,28.71,12.18,53.53,30.24,75.77,51.95.83.81,1.81,1.46,2.72,2.19Z"/><path class="cls-4" d="M569.12,569.31c11.08-15.72,19.26-35.71,19.51-58.34.17-15.44-2.41-30.3-12.85-42.53-8.64-10.11-20.47-10.9-30.61-2.37a30.22,30.22,0,0,0-5.4,5.5c-5.82,8.31-11.67,16.62-17.08,25.2-13.87,22-26.6,44.66-43.83,64.32-5.32,6.07-11.11,11.84-15.69,18.43-12.79,18.46-4.16,38.75,18,42.89a46.83,46.83,0,0,0,10.78.61c10.51-.51,20.26-3.82,29.4-8.86C540.09,603.81,554.51,588.72,569.12,569.31Z"/><path class="cls-4" d="M480.81,458.54c-6.09,8.87-5.65,20.95,1.05,30,2.21,3,5,4.61,8.38,2.43s3-5.28,1.2-8.59a25.62,25.62,0,0,1-3.29-8c-.9-5.6,1.44-10.11,6.24-13.16s9.26-3,13.7.9c2.51,2.2,5.45,2.22,7.83-.37s2.07-5.61-.39-7.81-5.08-4.26-8-5.25C497.92,445.45,486.82,449.78,480.81,458.54Z"/><path class="cls-4" d="M456.59,531.51c-10.85-7.33-25.6-4.84-31.83,4.64-6.68,10.16-5.2,20.59.08,30.84,1.84,3.56,4.54,6.09,8.68,3.76,3.82-2.15,3.07-5.43,1.51-9-1.5-3.4-3-7.09-3.18-10.72-.53-9.21,5.81-14,14.73-11.65,1.66.43,3.47,1.71,4.88,1.33,2.22-.58,5.1-1.79,6-3.56S456.81,532.68,456.59,531.51Z"/><path class="cls-5" d="M536.88,371.36c-23.17,6.52-45.47,12.82-67.81,19a8.81,8.81,0,0,1-5-.22c-7.63-2.63-15.14-5.63-22.79-8.19-4.09-1.37-3.57-3.25-1.53-6,9.07-12.26,21.12-20.29,35.87-23.51,22.19-4.85,42.35-.83,58.88,15.92A38.13,38.13,0,0,1,536.88,371.36Z"/><path class="cls-5" d="M373.93,451.31c1.24-20.56,10.35-35.69,26-46.73,17.24-12.2,36.14-15.82,57.86-8-5.18,5-9.55,9.25-13.94,13.45-11.67,11.18-23.26,22.44-35.12,33.41a17.72,17.72,0,0,1-8.43,4.23C392,449.19,383.62,450,373.93,451.31Z"/><path class="cls-5" d="M400.52,457.38c-2.47,5.17-4.86,10.22-7.31,15.24-7.3,15-14.49,30-22.08,44.83a19,19,0,0,1-6.87,7.16c-7.15,4.31-14.66,8-22.79,12.38-6.37-20.6-2.16-38.47,9.24-54.93C362.27,465.37,385.08,454.09,400.52,457.38Z"/><path class="cls-5" d="M525.61,348.09c31.54-25.43,83.59-9,94.89,29.1-6.66-.64-13-1.13-19.38-1.88-15.7-1.84-31.42-3.63-47.07-5.87a21.38,21.38,0,0,1-10-4.36C537.68,359.89,531.92,354,525.61,348.09Z"/><path class="cls-5" d="M699.55,407c-5.14,1.39-9.56,2-14.35-.32-16.25-7.82-32.68-15.29-49-23a8.07,8.07,0,0,1-3.61-2.72c-4.76-8.32-9.32-16.76-14.38-26,17.2-5.36,33.18-4,48.23,4.26C685.15,369.54,696.49,385.3,699.55,407Z"/><path class="cls-5" d="M368.59,532c-1.33,13.87-2.95,27-3.73,40.12-.56,9.4.22,18.87-.1,28.29a14.3,14.3,0,0,1-3.09,7.79c-5.28,6.71-11,13.07-17.06,20.16-13-15.57-16.44-32.83-12.49-51.54C336.55,555.87,348.29,540.49,368.59,532Z"/><path class="cls-5" d="M367.73,616c5.45,13.91,10.11,27.18,15.85,40,3.56,7.94,8.89,15.07,13.09,22.74a11.81,11.81,0,0,1,1.33,7.09c-1.05,6.08-2.89,12-4.14,18.06-.87,4.23-2.56,5-6.35,2.82-19.83-11.47-29.61-29.09-31.27-51.43-.89-11.86,1.3-23.3,7.56-33.67C365,619.62,366.45,617.81,367.73,616Z"/><path class="cls-5" d="M454.4,761.73c-16.41.55-29-6.13-38.82-18.63-11.5-14.66-16.71-40.58-10.38-52.77,4.26,4.65,8.12,9.46,12.6,13.61q12.82,11.89,26.29,23.12c4.16,3.46,7,6.86,7.19,12.74C451.56,746.93,453.23,754,454.4,761.73Z"/><path d="M569.12,569.31c-14.61,19.41-29,34.5-47.8,44.85-9.14,5-18.89,8.35-29.4,8.86a46.83,46.83,0,0,1-10.78-.61c-22.13-4.14-30.76-24.43-18-42.89,4.58-6.59,10.37-12.36,15.69-18.43,17.23-19.66,30-42.37,43.83-64.32,5.41-8.58,11.26-16.89,17.08-25.2a30.22,30.22,0,0,1,5.4-5.5c10.14-8.53,22-7.74,30.61,2.37,10.44,12.23,13,27.09,12.85,42.53C588.38,533.6,580.2,553.59,569.12,569.31Z"/><path d="M516.16,610.14c2.11-1.19,4.24-2.29,6.27-3.54,12.88-7.93,23.61-18.28,33.34-29.75,14.23-16.79,23.77-35.74,26.41-57.8a71.61,71.61,0,0,0-1.52-26.55C532,508.53,501.45,571.4,516.16,610.14Z"/><path class="cls-6" d="M516.16,610.14C501.45,571.4,532,508.53,580.66,492.5a71.61,71.61,0,0,1,1.52,26.55c-2.64,22.06-12.18,41-26.41,57.8-9.73,11.47-20.46,21.82-33.34,29.75C520.4,607.85,518.27,609,516.16,610.14Z"/><g class="cls-7"><path class="cls-8" d="M409.51,499.26c22.29-47.38,37.16-51.6,48.61-46.27,10.95,6.09,27.64,31.43,21.39,58.55-3.52,13.81-15,25.5-30.14,38.77-14.92,12.77-33.5,27.12-46,34.46-12.87,7.53-17,1.5-14.81-16.32C390.65,551.3,399.1,522.34,409.51,499.26Z"/></g><g class="cls-7"><path class="cls-8" d="M714.3,466.81c-2.38,20.93,7.38,21.44,20,15.52,12.48-5.38,15-13.92,9.46-25.63-5.54-11.24-12-20.25-16.43-23.22C722.88,429.4,716.42,445.36,714.3,466.81Z"/></g><path d="M456.59,531.51c.22,1.17,1.63,3.94.82,5.66s-3.73,3-6,3.56c-1.41.38-3.22-.9-4.88-1.33-8.92-2.34-15.26,2.44-14.73,11.65.21,3.63,1.68,7.32,3.18,10.72,1.56,3.55,2.31,6.83-1.51,9-4.14,2.33-6.84-.2-8.68-3.76-5.28-10.25-6.76-20.68-.08-30.84C431,526.67,445.74,524.18,456.59,531.51Z"/><path d="M480.81,458.54c6-8.76,17.11-13.09,26.69-9.89,2.95,1,5.66,3.13,8,5.25s2.79,5.19.39,7.81-5.32,2.57-7.83.37c-4.44-3.89-9-3.91-13.7-.9s-7.14,7.56-6.24,13.16a25.62,25.62,0,0,0,3.29,8c1.84,3.31,2.19,6.41-1.2,8.59s-6.17.56-8.38-2.43C475.16,479.49,474.72,467.41,480.81,458.54Z"/><path d="M655.43,637.61c5.19-9.3,6-11,6-11L653,637.77"/><path class="cls-1" d="M825.69,500.39C822.3,483,803.09,472,767.21,466.92a19,19,0,0,1-.53,9.41,11.58,11.58,0,0,1-.5,1.86,44.12,44.12,0,0,1-3.3,11.15,17.22,17.22,0,0,1-1.24,3.29c33.83,4.42,38.28,12.68,38.3,12.77s-2,16.31-66.85,43.64C683.48,570,615.91,589.33,542.83,603.55s-143,21.62-196.81,20.83c-70.34-1-78.31-15.25-78.34-15.39s1.43-13.25,50.38-36.31A13.12,13.12,0,1,0,306.87,549c-47.83,22.54-69.08,43.82-64.94,65,11.1,57,205,35,305.91,15.3S836.79,557.42,825.69,500.39Z"/><path class="cls-1" d="M824.81,500.34c-3.4-17.47-22.7-28.48-58.76-33.51a73.84,73.84,0,0,1-5.12,20.34c-.72,1.77-1.51,3.48-2.35,5.15,35.78,4.35,40.46,12.94,40.48,13s-2,16.31-66.85,43.65c-8.27,3.49-17.09,6.93-26.31,10.31-7.41,12-15.17,23.71-23.09,35.35C761.3,569.57,831.73,535.89,824.81,500.34Z"/></svg>