<svg id="Capa_1" data-name="Capa 1" xmlns="http://www.w3.org/2000/svg" viewBox="0 0 500 500"><defs><style>.cls-1{fill:#cea65f;}.cls-2{fill:#9c6235;}.cls-3{fill:#731d09;}.cls-4{opacity:0.56;}.cls-5{fill:#e2c89a;}</style></defs><path d="M337.7,307.39c-18.26,23.51-36.29,47.19-54.94,70.4-5.56,6.92-10,13.48-12.51,22.47-7.39,26.9-39.37,42.53-64.61,32.82-8.07-3.1-14.08-8.68-19-15.64a6.59,6.59,0,0,0-4.21-2.66c-23.77-1.57-39.63-13.4-47.24-35.86a11.39,11.39,0,0,0-6.17-7c-15.5-8.1-26.58-20.16-31.09-37.25-1.62-6.16-1.34-12.82-2.1-19.23-.18-1.53-.64-3.5-1.7-4.4-15.93-13.33-19.86-30.76-16.64-50.18,1.17-7,4.69-13.66,6.93-20.55.64-2,1.2-4.31.74-6.24-4-17-3.7-33.58,6-48.62,4-6.21,9.69-11.44,15-16.72,2-2,3.33-3.58,3.74-6.46,3.42-24.87,16-42.88,40.19-51.33A19.41,19.41,0,0,0,161.25,102c12.3-20.13,37.68-30.44,61.79-25.4a9.88,9.88,0,0,0,8.7-1.81c20.94-15.14,50.67-14.29,71,2a7.09,7.09,0,0,0,6.83,1.48,60.28,60.28,0,0,1,72.59,45.38c.44,2,.93,3.27,3.32,3.56,31.65,3.8,45.84,35.29,33.81,64.73-4.75,11.59-12.6,20.34-24,25.88a7.08,7.08,0,0,0-3.06,2.87c-14.15,27.36-32,52.36-49.35,77.68-1.94,2.85-4,5.63-6,8.43Z"/><path d="M379.17,164.46l-.58.66a24.63,24.63,0,0,1-2.1-1.69c-17.1-16.69-36.19-30.58-58.27-39.95-30.39-12.89-61.7-15.5-93.06-4.77-46.42,15.87-77.53,48-94.19,93.85-13.59,37.32-11.65,74.15,7.22,109.48,15.51,29.06,39.95,48.93,68.09,64.8,3.76,2.12,7.61,4.08,11.41,6.13l-.42.86c-9.24-2.47-18.49-4.95-28.83-7.7,1.46,6,2.3,11.07,3.93,15.89,5.63,16.55,21.14,25,37.76,20.73,16.89-4.29,29.76-18.37,30.14-33.73.12-4.33,1.74-6.87,4.61-10,9.43-10.18,18.67-20.59,27.14-31.57,27.24-35.35,53.06-71.74,76.65-109.63,5.44-8.71,9.61-18.2,14.44-27.28a4,4,0,0,1,2.2-1.95c15.33-3.51,26.2-20.48,26-37.72-.37-28.79-26.37-37.12-47.82-29.76C368.71,149,373.94,156.7,379.17,164.46Z"/><path d="M246.34,102.86a28.58,28.58,0,0,0-1.81-2.32c-12.7-12.89-28.21-16-45.28-12.25a45.73,45.73,0,0,0-27.59,18.09c-1.57,2.11-2,3.57,1.17,4.61,5.88,2,11.66,4.28,17.53,6.31a6.82,6.82,0,0,0,3.82.16C211.38,112.72,228.54,107.87,246.34,102.86Z"/><path d="M121,164.34c7.45-1,13.89-1.63,20.25-2.79a13.68,13.68,0,0,0,6.48-3.26c9.12-8.43,18-17.1,27-25.69,3.38-3.24,6.74-6.49,10.73-10.34-16.71-6-31.24-3.23-44.51,6.15C129,136.89,122,148.52,121,164.34Z"/><path d="M141.49,169c-11.88-2.53-29.42,6.15-38.31,19-8.76,12.65-12,26.39-7.1,42.24,6.25-3.36,12-6.2,17.53-9.52a14.62,14.62,0,0,0,5.28-5.51c5.83-11.41,11.36-23,17-34.48C137.75,176.87,139.58,173,141.49,169Z"/><path d="M237.68,85C242.53,89.5,247,94,251.83,98a16.51,16.51,0,0,0,7.73,3.36c12,1.72,24.12,3.1,36.19,4.52,4.88.57,9.78,1,14.91,1.44C302,78,261.93,65.41,237.68,85Z"/><path d="M371.45,130.23c-2.36-16.66-11.07-28.78-25.47-36.69-11.58-6.35-23.87-7.39-37.09-3.27,3.89,7.08,7.4,13.57,11.06,20a6.17,6.17,0,0,0,2.78,2.09c12.55,5.89,25.19,11.65,37.69,17.66C364.09,131.75,367.5,131.3,371.45,130.23Z"/><path d="M116.92,226.39c-15.61,6.54-24.64,18.36-28,34.46-3,14.39-.37,27.66,9.61,39.63,4.66-5.44,9.06-10.34,13.13-15.49a11.14,11.14,0,0,0,2.37-6c.24-7.24-.36-14.53.07-21.75C114.66,247.11,115.9,237.05,116.92,226.39Z"/><path d="M116.27,291c-1,1.39-2.1,2.79-3,4.3a43,43,0,0,0-5.82,25.9c1.28,17.18,8.8,30.73,24,39.55,2.9,1.69,4.22,1.09,4.88-2.16,1-4.66,2.37-9.23,3.18-13.9a9.08,9.08,0,0,0-1-5.44c-3.24-5.91-7.34-11.38-10.07-17.49C124.05,311.9,120.46,301.7,116.27,291Z"/><path d="M182.92,403.07c-.89-5.95-2.19-11.38-2.4-16.86-.18-4.53-2.33-7.15-5.52-9.81q-10.35-8.61-20.22-17.79c-3.44-3.19-6.41-6.88-9.69-10.46-4.88,9.38-.87,29.3,8,40.58C160.61,398.35,170.31,403.49,182.92,403.07Z"/><path class="cls-1" d="M379.17,164.46q-7.85-11.62-15.71-23.3c21.45-7.34,47.46,1,47.82,29.76.22,17.25-10.64,34.21-26,37.72a3.94,3.94,0,0,0-2.2,2c-4.83,9.1-9,18.58-14.44,27.29C345.06,275.76,319.26,312.16,292,347.5c-8.45,11-17.7,21.4-27.14,31.57-2.87,3.1-4.49,5.63-4.61,10-.39,15.35-13.25,29.44-30.14,33.73-16.62,4.22-32.13-4.19-37.76-20.73-1.64-4.82-2.48-9.93-3.93-15.9l28.83,7.71.42-.87c-3.81-2-7.65-4-11.41-6.12-28.14-15.88-52.58-35.76-68.09-64.8-18.88-35.35-20.81-72.16-7.22-109.49,16.66-45.8,47.77-78,94.19-93.84,31.36-10.73,62.67-8.13,93.06,4.77,22.08,9.37,41.17,23.25,58.27,40a24.52,24.52,0,0,0,2.1,1.68C378.78,164.89,379,164.67,379.17,164.46Z"/><path class="cls-1" d="M271.14,255.09c8.52-12.1,14.81-27.47,15-44.87.13-11.87-1.85-23.29-9.88-32.7-6.64-7.78-15.74-8.38-23.54-1.83a23.38,23.38,0,0,0-4.14,4.24c-4.48,6.39-9,12.78-13.14,19.37-10.67,16.89-20.45,34.36-33.7,49.47-4.1,4.67-8.55,9.1-12.07,14.17-9.84,14.2-3.2,29.8,13.81,33a36,36,0,0,0,8.3.47,51.81,51.81,0,0,0,22.6-6.81C248.82,281.62,259.92,270,271.14,255.09Z"/><path class="cls-1" d="M203.23,169.9a19.9,19.9,0,0,0,.82,23.06c1.7,2.3,3.83,3.55,6.44,1.88s2.33-4.06.93-6.61a19.89,19.89,0,0,1-2.54-6.17c-.69-4.3,1.11-7.77,4.8-10.12s7.11-2.29,10.53.69a4,4,0,0,0,6-.29,3.91,3.91,0,0,0-.29-6,18.87,18.87,0,0,0-6.19-4C216.39,159.84,207.86,163.17,203.23,169.9Z"/><path class="cls-1" d="M184.61,226c-8.35-5.64-19.69-3.72-24.48,3.57-5.14,7.8-4,15.83.06,23.71,1.42,2.74,3.48,4.68,6.67,2.88,2.94-1.65,2.36-4.17,1.16-6.9a24.48,24.48,0,0,1-2.43-8.24c-.41-7.08,4.46-10.75,11.32-8.95,1.28.33,2.67,1.31,3.75,1,1.71-.45,3.92-1.38,4.57-2.74S184.77,226.92,184.61,226Z"/><path class="cls-2" d="M246.34,102.86c-17.82,5-35,9.86-52.14,14.61a6.84,6.84,0,0,1-3.83-.16c-5.87-2-11.65-4.33-17.53-6.3-3.15-1.06-2.74-2.5-1.17-4.62A45.81,45.81,0,0,1,199.26,88.3c17.07-3.72,32.57-.64,45.29,12.25C245.07,101.08,245.49,101.75,246.34,102.86Z"/><path class="cls-2" d="M121,164.34c.95-15.82,8-27.45,20-35.93,13.26-9.38,27.79-12.16,44.5-6.15-4,3.85-7.35,7.1-10.73,10.34-9,8.6-17.88,17.26-27,25.69a13.63,13.63,0,0,1-6.48,3.26C134.93,162.71,128.49,163.36,121,164.34Z"/><path class="cls-2" d="M141.49,169c-1.9,4-3.74,7.86-5.63,11.72-5.61,11.52-11.14,23.08-17,34.48a14.92,14.92,0,0,1-5.28,5.51c-5.5,3.32-11.28,6.18-17.53,9.52-4.9-15.85-1.67-29.58,7.1-42.24C112.07,175.14,129.61,166.48,141.49,169Z"/><path class="cls-2" d="M237.68,85c24.25-19.55,64.28-6.91,73,22.39-5.13-.49-10-.87-14.91-1.44-12.08-1.42-24.16-2.8-36.19-4.52A16.26,16.26,0,0,1,251.82,98C247,94,242.53,89.5,237.68,85Z"/><path class="cls-2" d="M371.45,130.23c-3.95,1.07-7.36,1.52-11-.25-12.5-6-25.13-11.75-37.69-17.66a6.17,6.17,0,0,1-2.78-2.09c-3.66-6.4-7.17-12.9-11.06-20,13.22-4.12,25.51-3.09,37.09,3.27C360.38,101.45,369.09,113.57,371.45,130.23Z"/><path class="cls-2" d="M116.92,226.39c-1,10.66-2.26,20.74-2.87,30.85-.43,7.22.17,14.51-.07,21.75a11.08,11.08,0,0,1-2.38,6c-4.07,5.15-8.47,10.05-13.12,15.49-10-12-12.64-25.24-9.61-39.63C92.29,244.74,101.32,232.92,116.92,226.39Z"/><path class="cls-2" d="M116.27,291c4.19,10.69,7.78,20.91,12.2,30.76,2.74,6.11,6.83,11.58,10.06,17.49a9,9,0,0,1,1,5.44c-.8,4.69-2.22,9.24-3.18,13.9-.66,3.25-2,3.85-4.88,2.16-15.24-8.81-22.77-22.37-24.05-39.55a43,43,0,0,1,5.82-25.9C114.17,293.78,115.29,292.38,116.27,291Z"/><path class="cls-2" d="M182.92,403.07c-12.61.42-22.31-4.72-29.86-14.34-8.84-11.28-12.86-31.2-8-40.58,3.28,3.58,6.25,7.27,9.7,10.46q9.87,9.15,20.22,17.79c3.2,2.66,5.35,5.28,5.52,9.81C180.73,391.68,182,397.12,182.92,403.07Z"/><path d="M271.14,255.09c-11.24,14.92-22.33,26.53-36.76,34.49a51.55,51.55,0,0,1-22.6,6.81,36,36,0,0,1-8.3-.47c-17-3.18-23.66-18.79-13.81-33,3.52-5.07,8-9.5,12.07-14.17,13.25-15.11,23-32.59,33.7-49.47,4.16-6.59,8.66-13,13.14-19.37a23.72,23.72,0,0,1,4.14-4.24c7.8-6.55,16.9-5.95,23.54,1.83,8,9.41,10,20.83,9.88,32.7C286,227.62,279.66,243,271.14,255.09Z"/><path d="M230.41,286.48c1.63-.92,3.27-1.76,4.82-2.72,9.92-6.1,18.17-14.06,25.64-22.88,10.95-12.91,18.28-27.48,20.31-44.46A55.15,55.15,0,0,0,280,196C242.61,208.35,219.11,256.69,230.41,286.48Z"/><path class="cls-3" d="M230.41,286.48C219.1,256.68,242.61,208.35,280,196a55.19,55.19,0,0,1,1.16,20.43c-2,17-9.36,31.54-20.31,44.45-7.47,8.83-15.72,16.79-25.64,22.88C233.68,284.73,232,285.57,230.41,286.48Z"/><g class="cls-4"><path class="cls-5" d="M148.39,201.22c17.15-36.43,28.57-39.69,37.39-35.59,8.42,4.68,21.26,24.17,16.45,45-2.7,10.62-11.53,19.62-23.17,29.82-11.47,9.82-25.77,20.86-35.4,26.49-9.9,5.8-13.08,1.15-11.38-12.55C133.9,241.23,140.39,219,148.39,201.22Z"/></g><g class="cls-4"><path class="cls-5" d="M382.79,176.27c-1.83,16.08,5.68,16.48,15.38,11.92,9.59-4.14,11.49-10.71,7.27-19.72-4.26-8.65-9.19-15.56-12.64-17.84C389.39,147.49,384.43,159.76,382.79,176.27Z"/></g><path d="M184.61,226c.16.9,1.25,3,.62,4.35s-2.87,2.29-4.57,2.74c-1.08.28-2.47-.69-3.75-1-6.85-1.8-11.73,1.87-11.32,8.95a24.71,24.71,0,0,0,2.43,8.24c1.2,2.73,1.78,5.25-1.16,6.9-3.19,1.8-5.25-.15-6.67-2.88-4.07-7.88-5.2-15.91-.06-23.71C164.92,222.29,176.26,220.38,184.61,226Z"/><path d="M203.23,169.9c4.63-6.73,13.16-10.06,20.52-7.6a18.71,18.71,0,0,1,6.19,4,3.91,3.91,0,0,1,.29,6,4,4,0,0,1-6,.29c-3.42-3-6.89-3-10.53-.69s-5.49,5.82-4.8,10.12a19.42,19.42,0,0,0,2.54,6.17c1.41,2.55,1.68,4.94-.93,6.61s-4.74.43-6.44-1.88A19.9,19.9,0,0,1,203.23,169.9Z"/><path d="M337.52,307.62c4-7.16,4.58-8.5,4.58-8.5l-6.45,8.61"/></svg>